<?xml version="1.0" encoding="UTF-8"?>
<!DOCTYPE svg PUBLIC "-//W3C//DTD SVG 1.1//EN" "http://www.w3.org/Graphics/SVG/1.1/DTD/svg11.dtd">
<!-- Creator: CorelDRAW 2021 (64-Bit) -->
<svg xmlns="http://www.w3.org/2000/svg" xml:space="preserve" width="0.235598in" height="0.235642in" version="1.1" style="shape-rendering:geometricPrecision; text-rendering:geometricPrecision; image-rendering:optimizeQuality; fill-rule:evenodd; clip-rule:evenodd"
viewBox="0 0 1.08 1.08"
 xmlns:xlink="http://www.w3.org/1999/xlink"
 xmlns:xodm="http://www.corel.com/coreldraw/odm/2003">
 <defs>
  <style type="text/css">
   <![CDATA[
    .fil0 {fill:#4AA923}
   ]]>
  </style>
 </defs>
 <g id="Layer_x0020_1">
  <metadata id="CorelCorpID_0Corel-Layer"/>
  <path class="fil0" d="M0.16 0.55l-0.14 0.1c-0.06,0.06 -0,0.13 0.02,0.19 0.03,0.06 0.05,0.12 0.08,0.18 0.04,0.09 0.07,0.07 0.14,0.02 0.04,-0.03 0.1,-0.09 0.15,-0.09 0.11,-0.01 0.27,0.05 0.31,-0.09 0,-0 0.01,-0.02 0.01,-0.03 0.02,-0.05 0.07,-0 0.08,-0.09 0.01,-0.04 0,-0.1 0,-0.14 0.08,-0.01 0.06,-0.13 0.04,-0.2 -0.08,-0.02 -0.21,-0.01 -0.3,-0.01 0,0.11 0.02,0.27 -0.12,0.27 -0.14,0 -0.11,-0.27 -0.11,-0.41 -0.04,0 -0.1,0.06 -0.13,0.09 -0.05,0.05 -0.04,0.1 -0.04,0.21z"/>
  <path class="fil0" d="M0.38 0.26c0,0.16 -0.03,0.37 0.07,0.37 0.01,0 0.04,-0.02 0.05,-0.03 0.04,-0.04 0.02,-0.17 0.02,-0.26 0.06,0.03 0.3,-0.04 0.37,0.04 0.03,0.04 0.03,0.07 0.03,0.14 0.04,-0.01 0.06,-0.04 0.09,-0.06 0.1,-0.07 0.09,-0.09 0.04,-0.2 -0.01,-0.03 -0.03,-0.07 -0.04,-0.1 -0.09,-0.21 -0.08,-0.2 -0.22,-0.1 -0.05,0.04 -0.06,0.06 -0.14,0.06 -0.06,-0 -0.12,-0.01 -0.17,0.01 -0.03,0.02 -0.1,0.07 -0.1,0.11z"/>
 </g>
</svg>
